<?xml version="1.0" standalone="no"?><!DOCTYPE svg PUBLIC "-//W3C//DTD SVG 1.1//EN" "http://www.w3.org/Graphics/SVG/1.1/DTD/svg11.dtd"><svg xmlns:xlink="http://www.w3.org/1999/xlink" version="1.1" style="font-family:dosis, sans-serif;font-size:12px;" xmlns="http://www.w3.org/2000/svg" width="600" height="400"><desc>Created with Highcharts 4.2.7</desc><defs><clipPath id="highcharts-104"><rect x="1" y="1" width="479" height="291"></rect></clipPath></defs><rect x="1" y="1" width="598" height="398" fill="none" class=" highcharts-background"></rect><rect x="109" y="36" width="481" height="293" fill="#ffffff"></rect><path fill="rgb(255, 255, 255)" fill-opacity=" .5" d="M 109 329.5 L 590 329.5 590 256.5 109 256.5"></path><path fill="rgb(255, 255, 255)" fill-opacity=" .5" d="M 109 183.5 L 590 183.5 590 109.5 109 109.5"></path><g class="highcharts-grid"></g><g class="highcharts-grid"><path fill="none" d="M 109 329.5 L 590 329.5" stroke="#C0C0C0" stroke-width="1" opacity="1"></path><path fill="none" d="M 109 256.5 L 590 256.5" stroke="#C0C0C0" stroke-width="1" opacity="1"></path><path fill="none" d="M 109 183.5 L 590 183.5" stroke="#C0C0C0" stroke-width="1" opacity="1"></path><path fill="none" d="M 109 109.5 L 590 109.5" stroke="#C0C0C0" stroke-width="1" opacity="1"></path><path fill="none" d="M 109 35.5 L 590 35.5" stroke="#C0C0C0" stroke-width="1" opacity="1"></path></g><rect x="109" y="36" width="481" height="293" stroke="#026FC1" stroke-width="2" fill="none"></rect><g class="highcharts-axis"><path fill="none" d="M 228.5 329 L 228.5 339" stroke="#C0D0E0" stroke-width="1" opacity="1"></path><path fill="none" d="M 349.5 329 L 349.5 339" stroke="#C0D0E0" stroke-width="1" opacity="1"></path><path fill="none" d="M 469.5 329 L 469.5 339" stroke="#C0D0E0" stroke-width="1" opacity="1"></path><path fill="none" d="M 590.5 329 L 590.5 339" stroke="#C0D0E0" stroke-width="1" opacity="1"></path><path fill="none" d="M 108.5 329 L 108.5 339" stroke="#C0D0E0" stroke-width="1" opacity="1"></path><path fill="none" d="M 109 329.5 L 590 329.5" stroke="#C0D0E0" stroke-width="1"></path></g><g class="highcharts-axis"><path fill="none" d="M 109 329.5 L 99 329.5" stroke="#C0D0E0" stroke-width="1" opacity="1"></path><path fill="none" d="M 109 256.5 L 99 256.5" stroke="#C0D0E0" stroke-width="1" opacity="1"></path><path fill="none" d="M 109 183.5 L 99 183.5" stroke="#C0D0E0" stroke-width="1" opacity="1"></path><path fill="none" d="M 109 109.5 L 99 109.5" stroke="#C0D0E0" stroke-width="1" opacity="1"></path><path fill="none" d="M 109 35.5 L 99 35.5" stroke="#C0D0E0" stroke-width="1" opacity="1"></path><text x="21.203125" text-anchor="middle" transform="translate(0,0) rotate(270 21.203125 182.5)" class=" highcharts-yaxis-title" style="color:#000000;font-size:10px;font-family:'arial', sans-serif;text-transform:none;font-weight:normal;fill:#000000;" y="182.5"><tspan>99%le latency</tspan></text><path fill="none" d="M 108.5 36 L 108.5 329" stroke="#C0D0E0" stroke-width="1"></path></g><g class="highcharts-series-group"><g class="highcharts-series highcharts-series-0" transform="translate(109,36) scale(1 1)" clip-path="url(#highcharts-104)"><rect x="30.5" y="211.5" width="58" height="82" stroke="#FFFFFF" stroke-width="1" fill="#50B432" rx="0" ry="0"></rect><rect x="151.5" y="40.5" width="58" height="253" stroke="#FFFFFF" stroke-width="1" fill="#ED561B" rx="0" ry="0"></rect><rect x="271.5" y="128.5" width="58" height="165" stroke="#FFFFFF" stroke-width="1" fill="#DDDF00" rx="0" ry="0"></rect><rect x="391.5" y="113.5" width="58" height="180" stroke="#FFFFFF" stroke-width="1" fill="#24CBE5" rx="0" ry="0"></rect></g><g class="highcharts-markers highcharts-series-0" transform="translate(109,36) scale(1 1)" clip-path="none"></g><g class="highcharts-series highcharts-series-1" transform="translate(109,36) scale(1 1)" clip-path="url(#highcharts-104)"></g><g class="highcharts-markers highcharts-series-1" transform="translate(109,36) scale(1 1)" clip-path="none"></g></g><text x="300" text-anchor="middle" class="highcharts-title" style="color:#000000;font-size:10px;font-family:'arial', sans-serif;text-transform:none;font-weight:bold;fill:#000000;width:536px;" y="17"><tspan>99%le latency</tspan></text><g class="highcharts-data-labels highcharts-series-0" transform="translate(109,36) scale(1 1)" opacity="1"><g style="cursor:pointer;" transform="translate(42,191)"><text x="5" style="font-size:10px;font-weight:bold;font-family:'arial', sans-serif;color:#000000;text-shadow:none;fill:#000000;text-rendering:geometricprecision;" y="15"><tspan>1.119</tspan></text></g><g style="cursor:pointer;" transform="translate(163,20)"><text x="5" style="font-size:10px;font-weight:bold;font-family:'arial', sans-serif;color:#000000;text-shadow:none;fill:#000000;text-rendering:geometricprecision;" y="15"><tspan>3.455</tspan></text></g><g style="cursor:pointer;" transform="translate(283,108)"><text x="5" style="font-size:10px;font-weight:bold;font-family:'arial', sans-serif;color:#000000;text-shadow:none;fill:#000000;text-rendering:geometricprecision;" y="15"><tspan>2.249</tspan></text></g><g style="cursor:pointer;" transform="translate(403,93)"><text x="5" style="font-size:10px;font-weight:bold;font-family:'arial', sans-serif;color:#000000;text-shadow:none;fill:#000000;text-rendering:geometricprecision;" y="15"><tspan>2.452</tspan></text></g></g><g class="highcharts-data-labels highcharts-series-1" transform="translate(109,36) scale(1 1)" opacity="1"></g><g class="highcharts-legend" transform="translate(242,360)"><g><g><g class="highcharts-legend-item" transform="translate(8,3)"><text x="21" style="color:#333;font-size:9pt;font-weight:normal;cursor:pointer;font-family:'lucida grande','lucida sans unicode',arial,helvetica,sans-serif;text-transform:none;fill:#333;" text-anchor="start" y="15"><tspan>99%le latency</tspan></text><rect x="0" y="4" width="16" height="12" fill="#CCC"></rect></g></g></g></g><g class="highcharts-axis-labels highcharts-xaxis-labels"><text x="169.125" style="color:#000000;cursor:default;font-size:10px;font-family:'arial', sans-serif;text-transform:none;font-weight:normal;fill:#000000;" text-anchor="middle" transform="translate(0,0)" y="347" opacity="1">Vertx</text><text x="289.375" style="color:#000000;cursor:default;font-size:10px;font-family:'arial', sans-serif;text-transform:none;font-weight:normal;fill:#000000;" text-anchor="middle" transform="translate(0,0)" y="347" opacity="1">Netty</text><text x="409.625" style="color:#000000;cursor:default;font-size:10px;font-family:'arial', sans-serif;text-transform:none;font-weight:normal;fill:#000000;" text-anchor="middle" transform="translate(0,0)" y="347" opacity="1">Go</text><text x="529.875" style="color:#000000;cursor:default;font-size:10px;font-family:'arial', sans-serif;text-transform:none;font-weight:normal;fill:#000000;" text-anchor="middle" transform="translate(0,0)" y="347" opacity="1">Node</text></g><g class="highcharts-axis-labels highcharts-yaxis-labels"><text x="94" style="color:#000000;cursor:default;font-size:10px;font-family:'arial', sans-serif;text-transform:none;font-weight:normal;fill:#000000;width:188px;text-overflow:clip;" text-anchor="end" transform="translate(0,0)" y="334" opacity="1"><tspan>0 milliseconds</tspan></text><text x="94" style="color:#000000;cursor:default;font-size:10px;font-family:'arial', sans-serif;text-transform:none;font-weight:normal;fill:#000000;width:188px;text-overflow:clip;" text-anchor="end" transform="translate(0,0)" y="260" opacity="1"><tspan>1 milliseconds</tspan></text><text x="94" style="color:#000000;cursor:default;font-size:10px;font-family:'arial', sans-serif;text-transform:none;font-weight:normal;fill:#000000;width:188px;text-overflow:clip;" text-anchor="end" transform="translate(0,0)" y="187" opacity="1"><tspan>2 milliseconds</tspan></text><text x="94" style="color:#000000;cursor:default;font-size:10px;font-family:'arial', sans-serif;text-transform:none;font-weight:normal;fill:#000000;width:188px;text-overflow:clip;" text-anchor="end" transform="translate(0,0)" y="114" opacity="1"><tspan>3 milliseconds</tspan></text><text x="94" style="color:#000000;cursor:default;font-size:10px;font-family:'arial', sans-serif;text-transform:none;font-weight:normal;fill:#000000;width:188px;text-overflow:clip;" text-anchor="end" transform="translate(0,0)" y="41" opacity="1"><tspan>4 milliseconds</tspan></text></g><g class="highcharts-tooltip" display="none" style="cursor:default;padding:0;pointer-events:none;white-space:nowrap;" transform="translate(0,0)"><path fill="rgb(255, 255, 255)" fill-opacity=" 0.85" d="M 3.5 0.5 L 13.5 0.5 C 16.5 0.5 16.5 0.5 16.5 3.5 L 16.5 13.5 C 16.5 16.5 16.5 16.5 13.5 16.5 L 3.5 16.5 C 0.5 16.5 0.5 16.5 0.5 13.5 L 0.5 3.5 C 0.5 0.5 0.5 0.5 3.5 0.5"></path><text x="8" style="font-size:12px;color:#000000;fill:#000000;" y="20"></text></g><text x="590" text-anchor="end" style="cursor:pointer;color:#666;font-size:9px;fill:#666;" y="395">meta-chart.com</text></svg>