<?xml version="1.0" standalone="no"?><!DOCTYPE svg PUBLIC "-//W3C//DTD SVG 1.1//EN" "http://www.w3.org/Graphics/SVG/1.1/DTD/svg11.dtd"><svg xmlns:xlink="http://www.w3.org/1999/xlink" version="1.1" style="font-family:dosis, sans-serif;font-size:12px;" xmlns="http://www.w3.org/2000/svg" width="600" height="400"><desc>Created with Highcharts 4.2.7</desc><defs><clipPath id="highcharts-88"><rect x="1" y="1" width="471" height="291"></rect></clipPath></defs><rect x="1" y="1" width="598" height="398" fill="none" class=" highcharts-background"></rect><rect x="117" y="36" width="473" height="293" fill="#ffffff"></rect><path fill="rgb(255, 255, 255)" fill-opacity=" .5" d="M 117 329.5 L 590 329.5 590 256.5 117 256.5"></path><path fill="rgb(255, 255, 255)" fill-opacity=" .5" d="M 117 183.5 L 590 183.5 590 109.5 117 109.5"></path><g class="highcharts-grid"></g><g class="highcharts-grid"><path fill="none" d="M 117 329.5 L 590 329.5" stroke="#C0C0C0" stroke-width="1" opacity="1"></path><path fill="none" d="M 117 256.5 L 590 256.5" stroke="#C0C0C0" stroke-width="1" opacity="1"></path><path fill="none" d="M 117 183.5 L 590 183.5" stroke="#C0C0C0" stroke-width="1" opacity="1"></path><path fill="none" d="M 117 109.5 L 590 109.5" stroke="#C0C0C0" stroke-width="1" opacity="1"></path><path fill="none" d="M 117 35.5 L 590 35.5" stroke="#C0C0C0" stroke-width="1" opacity="1"></path></g><rect x="117" y="36" width="473" height="293" stroke="#026FC1" stroke-width="2" fill="none"></rect><g class="highcharts-axis"><path fill="none" d="M 234.5 329 L 234.5 339" stroke="#C0D0E0" stroke-width="1" opacity="1"></path><path fill="none" d="M 353.5 329 L 353.5 339" stroke="#C0D0E0" stroke-width="1" opacity="1"></path><path fill="none" d="M 471.5 329 L 471.5 339" stroke="#C0D0E0" stroke-width="1" opacity="1"></path><path fill="none" d="M 590.5 329 L 590.5 339" stroke="#C0D0E0" stroke-width="1" opacity="1"></path><path fill="none" d="M 116.5 329 L 116.5 339" stroke="#C0D0E0" stroke-width="1" opacity="1"></path><path fill="none" d="M 117 329.5 L 590 329.5" stroke="#C0D0E0" stroke-width="1"></path></g><g class="highcharts-axis"><path fill="none" d="M 117 329.5 L 107 329.5" stroke="#C0D0E0" stroke-width="1" opacity="1"></path><path fill="none" d="M 117 256.5 L 107 256.5" stroke="#C0D0E0" stroke-width="1" opacity="1"></path><path fill="none" d="M 117 183.5 L 107 183.5" stroke="#C0D0E0" stroke-width="1" opacity="1"></path><path fill="none" d="M 117 109.5 L 107 109.5" stroke="#C0D0E0" stroke-width="1" opacity="1"></path><path fill="none" d="M 117 35.5 L 107 35.5" stroke="#C0D0E0" stroke-width="1" opacity="1"></path><text x="20.859375" text-anchor="middle" transform="translate(0,0) rotate(270 20.859375 182.5)" class=" highcharts-yaxis-title" style="color:#000000;font-size:10px;font-family:'arial', sans-serif;text-transform:none;font-weight:normal;fill:#000000;" y="182.5"><tspan>avg latency</tspan></text><path fill="none" d="M 116.5 36 L 116.5 329" stroke="#C0D0E0" stroke-width="1"></path></g><g class="highcharts-series-group"><g class="highcharts-series highcharts-series-0" transform="translate(117,36) scale(1 1)" clip-path="url(#highcharts-88)"><rect x="30.5" y="227.5" width="57" height="66" stroke="#FFFFFF" stroke-width="1" fill="#50B432" rx="0" ry="0"></rect><rect x="148.5" y="144.5" width="57" height="149" stroke="#FFFFFF" stroke-width="1" fill="#ED561B" rx="0" ry="0"></rect><rect x="266.5" y="184.5" width="57" height="109" stroke="#FFFFFF" stroke-width="1" fill="#DDDF00" rx="0" ry="0"></rect><rect x="384.5" y="25.5" width="57" height="268" stroke="#FFFFFF" stroke-width="1" fill="#24CBE5" rx="0" ry="0"></rect></g><g class="highcharts-markers highcharts-series-0" transform="translate(117,36) scale(1 1)" clip-path="none"></g><g class="highcharts-series highcharts-series-1" transform="translate(117,36) scale(1 1)" clip-path="url(#highcharts-88)"></g><g class="highcharts-markers highcharts-series-1" transform="translate(117,36) scale(1 1)" clip-path="none"></g></g><text x="300" text-anchor="middle" class="highcharts-title" style="color:#000000;font-size:10px;font-family:'arial', sans-serif;text-transform:none;font-weight:bold;fill:#000000;width:536px;" y="17"><tspan>Average latency</tspan></text><g class="highcharts-data-labels highcharts-series-0" transform="translate(117,36) scale(1 1)" opacity="1"><g style="cursor:pointer;" transform="translate(41,207)"><text x="5" style="font-size:10px;font-weight:bold;font-family:'arial', sans-serif;color:#000000;text-shadow:none;fill:#000000;text-rendering:geometricprecision;" y="15"><tspan>0.449</tspan></text></g><g style="cursor:pointer;" transform="translate(159,124)"><text x="5" style="font-size:10px;font-weight:bold;font-family:'arial', sans-serif;color:#000000;text-shadow:none;fill:#000000;text-rendering:geometricprecision;" y="15"><tspan>1.017</tspan></text></g><g style="cursor:pointer;" transform="translate(277,164)"><text x="5" style="font-size:10px;font-weight:bold;font-family:'arial', sans-serif;color:#000000;text-shadow:none;fill:#000000;text-rendering:geometricprecision;" y="15"><tspan>0.745</tspan></text></g><g style="cursor:pointer;" transform="translate(395,5)"><text x="5" style="font-size:10px;font-weight:bold;font-family:'arial', sans-serif;color:#000000;text-shadow:none;fill:#000000;text-rendering:geometricprecision;" y="15"><tspan>1.826</tspan></text></g></g><g class="highcharts-data-labels highcharts-series-1" transform="translate(117,36) scale(1 1)" opacity="1"></g><g class="highcharts-legend" transform="translate(236,360)"><g><g><g class="highcharts-legend-item" transform="translate(8,3)"><text x="21" style="color:#333;font-size:9pt;font-weight:normal;cursor:pointer;font-family:'lucida grande','lucida sans unicode',arial,helvetica,sans-serif;text-transform:none;fill:#333;" text-anchor="start" y="15"><tspan>Average latency</tspan></text><rect x="0" y="4" width="16" height="12" fill="#CCC"></rect></g></g></g></g><g class="highcharts-axis-labels highcharts-xaxis-labels"><text x="176.125" style="color:#000000;cursor:default;font-size:10px;font-family:'arial', sans-serif;text-transform:none;font-weight:normal;fill:#000000;" text-anchor="middle" transform="translate(0,0)" y="347" opacity="1">Vertx</text><text x="294.375" style="color:#000000;cursor:default;font-size:10px;font-family:'arial', sans-serif;text-transform:none;font-weight:normal;fill:#000000;" text-anchor="middle" transform="translate(0,0)" y="347" opacity="1">Netty</text><text x="412.625" style="color:#000000;cursor:default;font-size:10px;font-family:'arial', sans-serif;text-transform:none;font-weight:normal;fill:#000000;" text-anchor="middle" transform="translate(0,0)" y="347" opacity="1">Go</text><text x="530.875" style="color:#000000;cursor:default;font-size:10px;font-family:'arial', sans-serif;text-transform:none;font-weight:normal;fill:#000000;" text-anchor="middle" transform="translate(0,0)" y="347" opacity="1">Node</text></g><g class="highcharts-axis-labels highcharts-yaxis-labels"><text x="102" style="color:#000000;cursor:default;font-size:10px;font-family:'arial', sans-serif;text-transform:none;font-weight:normal;fill:#000000;width:188px;text-overflow:clip;" text-anchor="end" transform="translate(0,0)" y="334" opacity="1"><tspan>0 milliseconds</tspan></text><text x="102" style="color:#000000;cursor:default;font-size:10px;font-family:'arial', sans-serif;text-transform:none;font-weight:normal;fill:#000000;width:188px;text-overflow:clip;" text-anchor="end" transform="translate(0,0)" y="260" opacity="1"><tspan>0.5 milliseconds</tspan></text><text x="102" style="color:#000000;cursor:default;font-size:10px;font-family:'arial', sans-serif;text-transform:none;font-weight:normal;fill:#000000;width:188px;text-overflow:clip;" text-anchor="end" transform="translate(0,0)" y="187" opacity="1"><tspan>1 milliseconds</tspan></text><text x="102" style="color:#000000;cursor:default;font-size:10px;font-family:'arial', sans-serif;text-transform:none;font-weight:normal;fill:#000000;width:188px;text-overflow:clip;" text-anchor="end" transform="translate(0,0)" y="114" opacity="1"><tspan>1.5 milliseconds</tspan></text><text x="102" style="color:#000000;cursor:default;font-size:10px;font-family:'arial', sans-serif;text-transform:none;font-weight:normal;fill:#000000;width:188px;text-overflow:clip;" text-anchor="end" transform="translate(0,0)" y="41" opacity="1"><tspan>2 milliseconds</tspan></text></g><g class="highcharts-tooltip" display="none" style="cursor:default;padding:0;pointer-events:none;white-space:nowrap;" transform="translate(0,0)"><path fill="rgb(255, 255, 255)" fill-opacity=" 0.85" d="M 3.5 0.5 L 13.5 0.5 C 16.5 0.5 16.5 0.5 16.5 3.5 L 16.5 13.5 C 16.5 16.5 16.5 16.5 13.5 16.5 L 3.5 16.5 C 0.5 16.5 0.5 16.5 0.5 13.5 L 0.5 3.5 C 0.5 0.5 0.5 0.5 3.5 0.5"></path><text x="8" style="font-size:12px;color:#000000;fill:#000000;" y="20"></text></g><text x="590" text-anchor="end" style="cursor:pointer;color:#666;font-size:9px;fill:#666;" y="395">meta-chart.com</text></svg>