<?xml version="1.0" standalone="no"?><!DOCTYPE svg PUBLIC "-//W3C//DTD SVG 1.1//EN" "http://www.w3.org/Graphics/SVG/1.1/DTD/svg11.dtd"><svg xmlns:xlink="http://www.w3.org/1999/xlink" version="1.1" style="font-family:dosis, sans-serif;font-size:12px;" xmlns="http://www.w3.org/2000/svg" width="600" height="400"><desc>Created with Highcharts 4.2.7</desc><defs><clipPath id="highcharts-112"><rect x="1" y="1" width="455" height="291"></rect></clipPath></defs><rect x="1" y="1" width="598" height="398" fill="none" class=" highcharts-background"></rect><rect x="133" y="36" width="457" height="293" fill="#ffffff"></rect><path fill="rgb(255, 255, 255)" fill-opacity=" .5" d="M 133 329.5 L 590 329.5 590 270.5 133 270.5"></path><path fill="rgb(255, 255, 255)" fill-opacity=" .5" d="M 133 212.5 L 590 212.5 590 153.5 133 153.5"></path><path fill="rgb(255, 255, 255)" fill-opacity=" .5" d="M 133 95.5 L 590 95.5 590 36.5 133 36.5"></path><g class="highcharts-grid"></g><g class="highcharts-grid"><path fill="none" d="M 133 329.5 L 590 329.5" stroke="#C0C0C0" stroke-width="1" opacity="1"></path><path fill="none" d="M 133 270.5 L 590 270.5" stroke="#C0C0C0" stroke-width="1" opacity="1"></path><path fill="none" d="M 133 212.5 L 590 212.5" stroke="#C0C0C0" stroke-width="1" opacity="1"></path><path fill="none" d="M 133 153.5 L 590 153.5" stroke="#C0C0C0" stroke-width="1" opacity="1"></path><path fill="none" d="M 133 95.5 L 590 95.5" stroke="#C0C0C0" stroke-width="1" opacity="1"></path><path fill="none" d="M 133 35.5 L 590 35.5" stroke="#C0C0C0" stroke-width="1" opacity="1"></path></g><rect x="133" y="36" width="457" height="293" stroke="#026FC1" stroke-width="2" fill="none"></rect><g class="highcharts-axis"><path fill="none" d="M 246.5 329 L 246.5 339" stroke="#C0D0E0" stroke-width="1" opacity="1"></path><path fill="none" d="M 361.5 329 L 361.5 339" stroke="#C0D0E0" stroke-width="1" opacity="1"></path><path fill="none" d="M 475.5 329 L 475.5 339" stroke="#C0D0E0" stroke-width="1" opacity="1"></path><path fill="none" d="M 590.5 329 L 590.5 339" stroke="#C0D0E0" stroke-width="1" opacity="1"></path><path fill="none" d="M 132.5 329 L 132.5 339" stroke="#C0D0E0" stroke-width="1" opacity="1"></path><path fill="none" d="M 133 329.5 L 590 329.5" stroke="#C0D0E0" stroke-width="1"></path></g><g class="highcharts-axis"><path fill="none" d="M 133 329.5 L 123 329.5" stroke="#C0D0E0" stroke-width="1" opacity="1"></path><path fill="none" d="M 133 270.5 L 123 270.5" stroke="#C0D0E0" stroke-width="1" opacity="1"></path><path fill="none" d="M 133 212.5 L 123 212.5" stroke="#C0D0E0" stroke-width="1" opacity="1"></path><path fill="none" d="M 133 153.5 L 123 153.5" stroke="#C0D0E0" stroke-width="1" opacity="1"></path><path fill="none" d="M 133 95.5 L 123 95.5" stroke="#C0D0E0" stroke-width="1" opacity="1"></path><path fill="none" d="M 133 35.5 L 123 35.5" stroke="#C0D0E0" stroke-width="1" opacity="1"></path><text x="20.71875" text-anchor="middle" transform="translate(0,0) rotate(270 20.71875 182.5)" class=" highcharts-yaxis-title" style="color:#000000;font-size:10px;font-family:'arial', sans-serif;text-transform:none;font-weight:normal;fill:#000000;" y="182.5">throughput</text><path fill="none" d="M 132.5 36 L 132.5 329" stroke="#C0D0E0" stroke-width="1"></path></g><g class="highcharts-series-group"><g class="highcharts-series highcharts-series-0" transform="translate(133,36) scale(1 1)" clip-path="url(#highcharts-112)"><rect x="29.5" y="65.5" width="55" height="228" stroke="#FFFFFF" stroke-width="1" fill="#50B432" rx="0" ry="0"></rect><rect x="143.5" y="192.5" width="55" height="101" stroke="#FFFFFF" stroke-width="1" fill="#ED561B" rx="0" ry="0"></rect><rect x="257.5" y="156.5" width="55" height="137" stroke="#FFFFFF" stroke-width="1" fill="#DDDF00" rx="0" ry="0"></rect><rect x="371.5" y="237.5" width="55" height="56" stroke="#FFFFFF" stroke-width="1" fill="#24CBE5" rx="0" ry="0"></rect></g><g class="highcharts-markers highcharts-series-0" transform="translate(133,36) scale(1 1)" clip-path="none"></g><g class="highcharts-series highcharts-series-1" transform="translate(133,36) scale(1 1)" clip-path="url(#highcharts-112)"></g><g class="highcharts-markers highcharts-series-1" transform="translate(133,36) scale(1 1)" clip-path="none"></g></g><text x="300" text-anchor="middle" class="highcharts-title" style="color:#000000;font-size:10px;font-family:'arial', sans-serif;text-transform:none;font-weight:bold;fill:#000000;width:536px;" y="17"><tspan>Throughput</tspan></text><g class="highcharts-data-labels highcharts-series-0" transform="translate(133,36) scale(1 1)" opacity="1"><g style="cursor:pointer;" transform="translate(28,45)"><text x="5" style="font-size:10px;font-weight:bold;font-family:'arial', sans-serif;color:#000000;text-shadow:none;fill:#000000;text-rendering:geometricprecision;" y="15"><tspan>77755.569</tspan></text></g><g style="cursor:pointer;" transform="translate(142,172)"><text x="5" style="font-size:10px;font-weight:bold;font-family:'arial', sans-serif;color:#000000;text-shadow:none;fill:#000000;text-rendering:geometricprecision;" y="15"><tspan>34381.971</tspan></text></g><g style="cursor:pointer;" transform="translate(256,136)"><text x="5" style="font-size:10px;font-weight:bold;font-family:'arial', sans-serif;color:#000000;text-shadow:none;fill:#000000;text-rendering:geometricprecision;" y="15"><tspan>46915.127</tspan></text></g><g style="cursor:pointer;" transform="translate(370,217)"><text x="5" style="font-size:10px;font-weight:bold;font-family:'arial', sans-serif;color:#000000;text-shadow:none;fill:#000000;text-rendering:geometricprecision;" y="15"><tspan>19156.181</tspan></text></g></g><g class="highcharts-data-labels highcharts-series-1" transform="translate(133,36) scale(1 1)" opacity="1"></g><g class="highcharts-legend" transform="translate(247,360)"><g><g><g class="highcharts-legend-item" transform="translate(8,3)"><text x="21" style="color:#333;font-size:9pt;font-weight:normal;cursor:pointer;font-family:'lucida grande','lucida sans unicode',arial,helvetica,sans-serif;text-transform:none;fill:#333;" text-anchor="start" y="15">Throughput</text><rect x="0" y="4" width="16" height="12" fill="#CCC"></rect></g></g></g></g><g class="highcharts-axis-labels highcharts-xaxis-labels"><text x="190.125" style="color:#000000;cursor:default;font-size:10px;font-family:'arial', sans-serif;text-transform:none;font-weight:normal;fill:#000000;" text-anchor="middle" transform="translate(0,0)" y="347" opacity="1">Vertx</text><text x="304.375" style="color:#000000;cursor:default;font-size:10px;font-family:'arial', sans-serif;text-transform:none;font-weight:normal;fill:#000000;" text-anchor="middle" transform="translate(0,0)" y="347" opacity="1">Netty</text><text x="418.625" style="color:#000000;cursor:default;font-size:10px;font-family:'arial', sans-serif;text-transform:none;font-weight:normal;fill:#000000;" text-anchor="middle" transform="translate(0,0)" y="347" opacity="1">Go</text><text x="532.875" style="color:#000000;cursor:default;font-size:10px;font-family:'arial', sans-serif;text-transform:none;font-weight:normal;fill:#000000;" text-anchor="middle" transform="translate(0,0)" y="347" opacity="1">Node</text></g><g class="highcharts-axis-labels highcharts-yaxis-labels"><text x="118" style="color:#000000;cursor:default;font-size:10px;font-family:'arial', sans-serif;text-transform:none;font-weight:normal;fill:#000000;width:188px;text-overflow:clip;" text-anchor="end" transform="translate(0,0)" y="334" opacity="1"><tspan>0 ops/second</tspan></text><text x="118" style="color:#000000;cursor:default;font-size:10px;font-family:'arial', sans-serif;text-transform:none;font-weight:normal;fill:#000000;width:188px;text-overflow:clip;" text-anchor="end" transform="translate(0,0)" y="275" opacity="1"><tspan>20000 ops/second</tspan></text><text x="118" style="color:#000000;cursor:default;font-size:10px;font-family:'arial', sans-serif;text-transform:none;font-weight:normal;fill:#000000;width:188px;text-overflow:clip;" text-anchor="end" transform="translate(0,0)" y="216" opacity="1"><tspan>40000 ops/second</tspan></text><text x="118" style="color:#000000;cursor:default;font-size:10px;font-family:'arial', sans-serif;text-transform:none;font-weight:normal;fill:#000000;width:188px;text-overflow:clip;" text-anchor="end" transform="translate(0,0)" y="158" opacity="1"><tspan>60000 ops/second</tspan></text><text x="118" style="color:#000000;cursor:default;font-size:10px;font-family:'arial', sans-serif;text-transform:none;font-weight:normal;fill:#000000;width:188px;text-overflow:clip;" text-anchor="end" transform="translate(0,0)" y="99" opacity="1"><tspan>80000 ops/second</tspan></text><text x="118" style="color:#000000;cursor:default;font-size:10px;font-family:'arial', sans-serif;text-transform:none;font-weight:normal;fill:#000000;width:188px;text-overflow:clip;" text-anchor="end" transform="translate(0,0)" y="41" opacity="1"><tspan>100000 ops/second</tspan></text></g><g class="highcharts-tooltip" display="none" style="cursor:default;padding:0;pointer-events:none;white-space:nowrap;" transform="translate(0,0)"><path fill="rgb(255, 255, 255)" fill-opacity=" 0.85" d="M 3.5 0.5 L 13.5 0.5 C 16.5 0.5 16.5 0.5 16.5 3.5 L 16.5 13.5 C 16.5 16.5 16.5 16.5 13.5 16.5 L 3.5 16.5 C 0.5 16.5 0.5 16.5 0.5 13.5 L 0.5 3.5 C 0.5 0.5 0.5 0.5 3.5 0.5"></path><text x="8" style="font-size:12px;color:#000000;fill:#000000;" y="20"></text></g><text x="590" text-anchor="end" style="cursor:pointer;color:#666;font-size:9px;fill:#666;" y="395">meta-chart.com</text></svg>